<?xml version="1.0" encoding="utf-8"?>
<!-- Generator: Adobe Illustrator 23.1.0, SVG Export Plug-In . SVG Version: 6.00 Build 0)  -->
<svg version="1.1" id="Layer_1" xmlns="http://www.w3.org/2000/svg" xmlns:xlink="http://www.w3.org/1999/xlink" x="0px" y="0px"
	 viewBox="0 0 178.66 63.47" style="enable-background:new 0 0 178.66 63.47;" xml:space="preserve">
<style type="text/css">
	.st0{fill:#086C38;}
	.st1{fill:#00391E;}
	.st2{fill:#CD251C;}
	.st3{fill:#FFFFFF;}
	.st4{fill:#FFFFFF;stroke:#FFFFFF;stroke-width:0.25;stroke-miterlimit:10;}
	.st5{fill:#096937;}
	.st6{fill:#EFF8F7;}
</style>
<path class="st0" d="M39.69,13.14c1.49,2.83,2.32,6.31,1.86,9.53c-0.34,2.42-1.26,4.75-2.23,6.96c-2.25,5.11-5.15,9.93-8.15,14.59
	c-1.74,2.71-3.54,5.38-5.43,7.98c-2.69-3.69-5.23-7.53-7.62-11.44c-2.08-3.4-4.07-6.88-5.73-10.51c-1.29-2.82-2.65-5.98-2.7-9.16
	C9.8,13.52,14.63,6.61,21.84,4.8C28.85,3.04,36.26,6.61,39.69,13.14z"/>
<path class="st1" d="M113.61,13.14c1.49,2.83,2.32,6.31,1.86,9.53c-0.34,2.42-1.26,4.75-2.23,6.96c-2.25,5.11-5.15,9.93-8.15,14.59
	c-1.74,2.71-3.54,5.38-5.43,7.98c-2.69-3.69-5.23-7.53-7.62-11.44c-2.08-3.4-4.07-6.88-5.73-10.51c-1.29-2.82-2.65-5.98-2.7-9.16
	c0.11-7.58,4.93-14.48,12.15-16.29C102.77,3.04,110.18,6.61,113.61,13.14z"/>
<path class="st1" d="M149.86,13.74c1.49,2.83,2.32,6.31,1.86,9.53c-0.34,2.42-1.26,4.75-2.23,6.96c-2.25,5.11-5.15,9.93-8.15,14.59
	c-1.74,2.71-3.54,5.38-5.43,7.98c-2.69-3.69-5.23-7.53-7.62-11.44c-2.08-3.4-4.07-6.88-5.73-10.51c-1.29-2.82-2.65-5.98-2.7-9.16
	c0.11-7.58,4.93-14.48,12.15-16.29C139.02,3.64,146.43,7.21,149.86,13.74z"/>
<path class="st2" d="M76.67,13.14c1.49,2.83,2.32,6.31,1.86,9.53c-0.34,2.42-1.26,4.75-2.23,6.96c-2.25,5.11-5.15,9.93-8.15,14.59
	c-1.74,2.71-3.54,5.38-5.43,7.98c-2.69-3.69-5.23-7.53-7.62-11.44c-2.08-3.4-4.07-6.88-5.73-10.51c-1.29-2.82-2.65-5.98-2.7-9.16
	c0.11-7.58,4.93-14.48,12.15-16.29C65.83,3.04,73.24,6.61,76.67,13.14z"/>
<path class="st2" d="M1059.19,42.62c5.22,9.93,8.14,22.18,6.55,33.49c-1.19,8.49-4.42,16.68-7.84,24.45
	c-7.91,17.96-18.08,34.87-28.64,51.26c-6.12,9.5-12.44,18.89-19.07,28.03c-9.45-12.98-18.36-26.46-26.76-40.18
	c-7.31-11.94-14.29-24.16-20.14-36.94c-4.52-9.91-9.33-21.01-9.49-32.17c0.38-26.63,17.34-50.88,42.69-57.25
	C1021.1,7.12,1047.14,19.66,1059.19,42.62z"/>
<g>
	<rect x="50.75" y="18.54" class="st3" width="23.84" height="6.69"/>
	
		<rect x="50.75" y="18.54" transform="matrix(4.833678e-07 -1 1 4.833678e-07 40.7798 84.5559)" class="st3" width="23.84" height="6.69"/>
</g>
<g>
	<path class="st3" d="M90.71,33.92c-0.18-0.09-0.37-0.18-0.43-0.4c-0.11-0.37,0.14-0.68,0.56-0.7c0.39-0.02,0.39-0.02,0.39-0.41
		c0-2.75,0-5.51,0-8.26c0-0.35,0-0.35-0.34-0.41c-0.84-0.15-1.39-0.83-1.43-1.67c-0.04-0.81,0.06-1.58,0.42-2.31
		c0.2-0.41,0.35-0.85,0.51-1.28c0.1-0.27,0.29-0.41,0.59-0.41c0.19,0,0.39-0.01,0.58,0.01c0.3,0.02,0.49,0.23,0.49,0.52
		c0,0.28-0.19,0.52-0.47,0.52c-0.27,0-0.37,0.14-0.44,0.36c-0.08,0.24-0.18,0.48-0.28,0.72c-0.05,0.13-0.02,0.19,0.13,0.19
		c0.06,0,0.12,0,0.19,0c5.61,0,11.22,0,16.83,0c0.4,0,0.4,0,0.26-0.38c-0.08-0.21-0.17-0.42-0.24-0.63
		c-0.06-0.19-0.17-0.25-0.37-0.25c-1.51,0.01-3.03,0.01-4.54,0.01c-3.21,0-6.43,0-9.64,0c-0.38,0-0.6-0.21-0.6-0.54
		c0-0.32,0.21-0.51,0.59-0.52c0.61-0.01,1.22,0,1.83-0.01c0.28,0,0.3-0.04,0.31-0.31c0-0.19-0.08-0.25-0.25-0.25
		c-0.37,0-0.75,0-1.12,0c-0.51-0.01-0.69-0.18-0.69-0.7c0-2.04,0-4.07,0-6.11c0-0.51,0.2-0.71,0.71-0.71c3.57,0,7.15,0,10.72,0
		c0.51,0,0.7,0.2,0.7,0.71c0,2.04,0,4.07,0,6.11c0,0.51-0.18,0.69-0.69,0.69c-0.35,0-0.7,0-1.05,0c-0.19,0-0.32,0.02-0.32,0.28
		c0,0.25,0.12,0.29,0.31,0.28c0.73,0,1.47,0,2.2,0c0.68,0,1.36,0,2.04,0c0.42,0,0.54,0.09,0.69,0.46c0.28,0.71,0.56,1.42,0.84,2.13
		c0.02,0.06,0.05,0.12,0.05,0.18c0,0.51,0.06,1.02-0.03,1.52c-0.13,0.75-0.67,1.28-1.42,1.38c-0.25,0.03-0.31,0.13-0.31,0.36
		c0.01,1.02,0,2.04,0,3.07c0,1.02,0,2.04,0,3.07c0,0.11,0,0.22-0.01,0.33c-0.03,0.26-0.24,0.45-0.51,0.46
		c-0.26,0-0.49-0.17-0.53-0.44c-0.02-0.11-0.01-0.22-0.01-0.33c0-2.09-0.01-4.18,0.01-6.27c0-0.32-0.16-0.46-0.39-0.59
		c-0.09-0.05-0.15,0-0.21,0.04c-0.82,0.49-1.65,0.49-2.47,0c-0.1-0.06-0.17-0.06-0.27,0c-0.82,0.49-1.65,0.49-2.47,0
		c-0.1-0.06-0.17-0.05-0.27,0.01c-0.82,0.49-1.65,0.49-2.47-0.01c-0.1-0.06-0.17-0.05-0.27,0.01c-0.81,0.49-1.64,0.49-2.45,0
		c-0.14-0.08-0.22-0.04-0.33,0.02c-0.79,0.45-1.59,0.45-2.38,0c-0.22-0.13-0.6,0.04-0.64,0.29c-0.01,0.08-0.01,0.16-0.01,0.23
		c0,2.81,0,5.62,0,8.43c0,0.06,0,0.12,0,0.19c-0.01,0.17,0.07,0.24,0.24,0.23c0.55-0.01,1.11-0.01,1.66,0
		c0.22,0,0.28-0.09,0.28-0.29c-0.01-0.8,0-1.61,0-2.41c0-1.4,0-2.81,0-4.21c0-0.35-0.02-0.37-0.37-0.37c-0.2,0-0.41,0-0.61,0
		c-0.43,0-0.66-0.19-0.66-0.52c0-0.34,0.23-0.53,0.65-0.53c0.62-0.01,1.23-0.01,1.85-0.01c3.43,0,6.85,0.01,10.28,0.01
		c0.1,0,0.2,0,0.3,0.01c0.28,0.03,0.47,0.25,0.46,0.52c0,0.28-0.19,0.5-0.47,0.51c-0.3,0.02-0.59,0.01-0.89,0.01
		c-0.2,0-0.28,0.08-0.28,0.28c0,2.24,0,4.48,0,6.72c0,0.2,0.06,0.3,0.28,0.29c0.55-0.01,1.09-0.01,1.64,0
		c0.19,0,0.27-0.07,0.26-0.26c-0.01-0.16-0.01-0.33,0-0.49c0.02-0.3,0.24-0.52,0.53-0.51c0.28,0,0.49,0.2,0.52,0.5
		c0.01,0.16,0.01,0.33,0.01,0.49c0,0.19,0.06,0.3,0.27,0.27c0.07-0.01,0.14,0,0.21,0.01c0.27,0.04,0.45,0.21,0.48,0.44
		c0.04,0.25-0.07,0.45-0.3,0.58c-0.05,0.03-0.1,0.05-0.14,0.08C102.57,33.92,96.64,33.92,90.71,33.92z M99.62,11.05
		c-1.56,0-3.12,0-4.68,0c-0.31,0-0.31,0-0.31,0.32c0,1.58,0,3.17,0,4.75c0,0.24,0.09,0.31,0.31,0.31c0.73-0.01,1.47-0.01,2.2-0.01
		c2.37,0,4.74,0,7.11,0.01c0.34,0,0.35-0.01,0.35-0.34c0-1.57,0-3.13,0-4.7c0-0.33,0-0.33-0.34-0.33
		C102.71,11.05,101.16,11.05,99.62,11.05z M99.07,29.19c0-1.12-0.01-2.23,0-3.35c0-0.23-0.08-0.3-0.29-0.3c-0.98,0.01-1.97,0-2.95,0
		c-0.21,0-0.29,0.08-0.29,0.29c0,2.23,0,4.46,0,6.69c0,0.22,0.08,0.3,0.3,0.29c0.98-0.01,1.95-0.01,2.93,0
		c0.23,0,0.31-0.07,0.31-0.3C99.06,31.41,99.07,30.3,99.07,29.19z M100.15,29.17c0,1.12,0,2.25,0,3.37c0,0.19,0.04,0.28,0.26,0.28
		c1.01-0.01,2.01-0.01,3.02,0c0.18,0,0.25-0.07,0.25-0.25c0-0.32,0-0.64,0-0.96c0-1.9,0-3.81,0-5.71c0-0.33-0.02-0.36-0.34-0.36
		c-0.97,0-1.94,0-2.9,0c-0.22,0-0.3,0.08-0.29,0.3C100.16,26.95,100.15,28.06,100.15,29.17z M99.58,18.02c0.89,0,1.78,0,2.66,0
		c0.19,0,0.29-0.03,0.29-0.25c0-0.22-0.09-0.26-0.28-0.26c-1.76,0-3.52,0-5.28,0c-0.19,0-0.29,0.03-0.29,0.26
		c0,0.22,0.09,0.26,0.28,0.26C97.84,18.02,98.71,18.02,99.58,18.02z M96.87,21.46C96.87,21.46,96.87,21.46,96.87,21.46
		c-0.21,0-0.42,0-0.63,0c-0.1,0-0.18,0.03-0.2,0.15c-0.15,0.7,0.16,1.09,0.88,1.08c0.09,0,0.19-0.01,0.28-0.03
		c0.27-0.05,0.45-0.23,0.48-0.5c0.02-0.16,0.01-0.33,0.01-0.49c0-0.14-0.07-0.21-0.22-0.21C97.27,21.46,97.07,21.46,96.87,21.46z
		 M103.18,21.85c-0.04-0.11,0.11-0.37-0.18-0.39c-0.43-0.02-0.86-0.01-1.28-0.01c-0.07,0-0.13,0.02-0.17,0.1
		c-0.11,0.23-0.01,0.81,0.19,0.96c0.34,0.25,0.73,0.22,1.09,0.09C103.14,22.49,103.2,22.2,103.18,21.85z M94.14,21.46
		C94.14,21.46,94.14,21.46,94.14,21.46c-0.09,0-0.19,0-0.28,0c-0.6,0-0.64,0.04-0.56,0.66c0.03,0.28,0.19,0.49,0.44,0.54
		c0.77,0.12,1.29,0.02,1.2-0.96c0-0.01,0-0.02,0-0.02c0.01-0.14-0.06-0.2-0.2-0.2C94.55,21.46,94.35,21.46,94.14,21.46z
		 M105.11,21.46C105.11,21.46,105.11,21.46,105.11,21.46c-0.08,0-0.16,0-0.23,0c-0.66,0-0.68,0.03-0.6,0.68c0,0.01,0,0.02,0,0.02
		c0.05,0.33,0.3,0.51,0.72,0.52c0.54,0.02,0.82-0.13,0.9-0.47c0.04-0.18,0.03-0.37,0.02-0.56c-0.01-0.13-0.07-0.2-0.21-0.2
		C105.51,21.46,105.31,21.46,105.11,21.46z M90.55,21.87C90.55,21.87,90.55,21.87,90.55,21.87c0,0.05,0,0.09,0,0.14
		c0.01,0.35,0.18,0.58,0.49,0.64c0.54,0.11,0.95-0.01,1.1-0.33c0.02-0.04,0.03-0.09,0.04-0.13c0.03-0.18,0.03-0.36,0.02-0.53
		c-0.01-0.13-0.06-0.2-0.2-0.2c-0.42,0-0.84,0-1.26,0c-0.13,0-0.2,0.07-0.19,0.2C90.56,21.73,90.55,21.8,90.55,21.87z M108.67,21.86
		c-0.04-0.13,0.11-0.39-0.21-0.4c-0.41-0.01-0.82,0-1.23,0c-0.07,0-0.14,0.01-0.18,0.08c-0.17,0.3,0.02,0.94,0.32,1.07
		c0.15,0.07,0.32,0.07,0.48,0.07C108.44,22.69,108.67,22.47,108.67,21.86z M99.61,21.46C99.61,21.46,99.61,21.46,99.61,21.46
		c-0.07,0-0.14,0-0.21,0c-0.7,0.01-0.61-0.09-0.61,0.66c0,0.26,0.17,0.46,0.42,0.53c0.8,0.24,1.23-0.08,1.21-0.9
		c0-0.02,0-0.03,0-0.05c0.01-0.17-0.06-0.25-0.23-0.24C100,21.46,99.81,21.46,99.61,21.46z"/>
	<path class="st3" d="M97.81,11.74c0.27,0,0.53-0.01,0.8,0c0.32,0.01,0.51,0.19,0.53,0.51c0.02,0.49,0.03,0.98,0.03,1.47
		c0,0.32-0.24,0.54-0.58,0.56c-0.26,0.01-0.53,0.01-0.8,0c-0.14,0-0.23,0.03-0.22,0.19c0,0.15,0.09,0.18,0.21,0.18
		c0.26,0,0.52-0.01,0.77,0.01c0.24,0.01,0.45,0.09,0.55,0.33c0.14,0.36-0.08,0.72-0.47,0.74c-0.54,0.02-1.08,0.01-1.61,0
		c-0.3-0.01-0.51-0.22-0.52-0.53c-0.01-0.5-0.01-1,0-1.5c0.01-0.29,0.21-0.49,0.51-0.51c0.28-0.01,0.56-0.01,0.84-0.01
		c0.13,0,0.23-0.03,0.23-0.19c0-0.16-0.1-0.2-0.23-0.2c-0.27,0-0.53,0-0.8-0.01c-0.34-0.01-0.56-0.22-0.56-0.53
		c0-0.3,0.23-0.51,0.57-0.52c0.02,0,0.03,0,0.05,0C97.35,11.74,97.58,11.74,97.81,11.74C97.81,11.74,97.81,11.74,97.81,11.74z"/>
	<path class="st3" d="M102.73,13.74c0,0.48,0.01,0.97,0,1.45c-0.01,0.43-0.44,0.67-0.8,0.46c-0.13-0.08-0.22-0.19-0.24-0.35
		c-0.01-0.08-0.01-0.16-0.02-0.23c-0.01-0.79,0.07-0.68-0.69-0.68c-0.81-0.01-0.9-0.09-0.9-0.9c0-0.39,0-0.78,0-1.17
		c0.01-0.37,0.21-0.58,0.53-0.58c0.32,0,0.52,0.22,0.53,0.59c0.01,0.26,0.01,0.51,0,0.77c0,0.18,0.11,0.22,0.26,0.22
		c0.15,0,0.26-0.03,0.26-0.21c0-0.25,0-0.5,0.01-0.75c0.01-0.41,0.2-0.63,0.54-0.62c0.32,0.01,0.52,0.23,0.52,0.62
		C102.73,12.82,102.73,13.28,102.73,13.74C102.73,13.74,102.73,13.74,102.73,13.74z"/>
	<path class="st3" d="M98.28,29.24c0,0.24,0.01,0.48,0,0.72c-0.01,0.32-0.22,0.55-0.51,0.57c-0.29,0.02-0.54-0.19-0.56-0.51
		c-0.02-0.52-0.02-1.04,0-1.56c0.01-0.31,0.27-0.52,0.54-0.5c0.29,0.01,0.5,0.24,0.52,0.56c0.01,0.12,0,0.25,0,0.37
		C98.28,29.01,98.28,29.12,98.28,29.24C98.28,29.24,98.28,29.24,98.28,29.24z"/>
	<path class="st3" d="M100.94,29.26c0-0.24-0.01-0.48,0-0.72c0.01-0.33,0.23-0.57,0.52-0.58c0.28-0.01,0.53,0.21,0.54,0.53
		c0.02,0.5,0.02,1.01,0,1.52c-0.01,0.34-0.27,0.55-0.57,0.53c-0.29-0.02-0.49-0.25-0.5-0.57C100.93,29.72,100.94,29.49,100.94,29.26
		z"/>
</g>
<g>
	<path class="st3" d="M757.23,117.54c0,1.66,0,3.33,0,4.99c-0.54,1.05-1.46,1.3-2.57,1.3c-24.11-0.01-48.23-0.01-72.34-0.01
		c-0.25,0-0.51,0-0.76-0.02c-1.2-0.13-1.81-0.79-1.82-1.98c-0.01-1.16-0.01-2.32,0-3.48c0.02-1.6,1.02-2.89,2.54-3.38
		c0.69-0.22,1.4-0.18,2.1-0.14c0.64,0.03,0.8-0.18,0.79-0.8c-0.02-9.99-0.02-19.98,0-29.97c0-0.54-0.14-0.77-0.7-0.92
		c-2.49-0.68-4.29-2.85-4.61-5.42c-0.2-1.54-0.04-3.07-0.11-4.61c-0.02-0.55,0.12-1.03,0.36-1.52c1.51-2.99,3.01-5.98,4.52-8.97
		c0.19-0.37,0.28-0.74,0.27-1.15c-0.01-1.46-0.02-2.93,0-4.39c0.02-1.65,0.96-2.63,2.61-2.7c0.93-0.04,1.87-0.02,2.8-0.01
		c0.86,0.01,1.72-0.08,2.57,0.06c0.57,0.09,0.89,0.45,0.92,1.03c0.03,0.58-0.24,0.97-0.8,1.13c-0.26,0.07-0.54,0.09-0.82,0.1
		c-1.44,0.01-2.88,0.02-4.31-0.01c-0.49-0.01-0.67,0.14-0.66,0.63c0.03,0.93,0,1.87,0.01,2.8c0.01,1.18-0.11,1.05,1.06,1.05
		c20.13,0,40.26,0,60.39,0c0.1,0,0.2-0.01,0.3,0c0.57,0.08,0.82-0.12,0.78-0.74c-0.05-0.91-0.01-1.82-0.01-2.72
		c0-1.2,0.04-1.01-1.01-1.01c-16.67,0-33.35,0-50.02-0.01c-0.33,0-0.66,0-0.97-0.07c-0.58-0.14-0.91-0.52-0.89-1.14
		c0.03-0.61,0.38-0.97,0.98-1.05c0.32-0.04,0.65-0.05,0.98-0.05c16.65,0,33.3,0,49.94,0c0.2,0,0.4,0,0.61,0
		c1.74,0.06,2.69,1.03,2.71,2.76c0.01,1.46,0,2.93,0,4.39c0,0.27-0.01,0.54,0.12,0.81c1.69,3.32,3.36,6.64,5.04,9.97
		c0,1.66,0,3.33,0,4.99c-0.03,0.09-0.09,0.18-0.1,0.27c-0.42,2.95-2.06,4.83-4.92,5.64c-0.33,0.09-0.42,0.29-0.41,0.61
		c0.02,0.63,0,1.26,0,1.89c0,9.42,0,18.85-0.01,28.27c0,0.55,0.02,0.91,0.74,0.85c0.65-0.06,1.31-0.07,1.96,0.08
		C755.93,115.22,756.68,116.27,757.23,117.54z M702.37,80.66c-0.04,0.03-0.09,0.05-0.11,0.09c-2.55,3.47-7.72,3.53-10.32,0.19
		c-0.24-0.3-0.37-0.3-0.6,0.01c-0.81,1.04-1.84,1.81-3.13,2.11c-0.68,0.16-0.77,0.5-0.77,1.1c0.02,9.84,0.01,19.67,0.01,29.51
		c0,1.12,0,1.08,1.12,1.13c0.68,0.03,0.89-0.15,0.88-0.86c-0.03-7.97-0.02-15.94-0.02-23.91c0-1.82,0.8-2.61,2.64-2.61
		c4.04,0,8.07,0,12.11,0c1.88,0,2.65,0.78,2.65,2.67c0,7.97,0,15.94-0.01,23.91c0,0.52,0.03,0.8,0.7,0.8
		c13.77-0.02,27.54-0.02,41.31,0c0.58,0,0.71-0.17,0.71-0.72c-0.02-4.24-0.01-8.47-0.01-12.71c0-5.78,0-11.55,0-17.33
		c0-0.36,0.12-0.75-0.45-0.88c-1.43-0.32-2.58-1.1-3.48-2.25c-0.22-0.29-0.36-0.26-0.55,0.01c-0.4,0.56-0.92,1-1.49,1.38
		c-2.61,1.77-6.54,1.53-8.94-1.64c-3.1,3.95-8.3,3.34-10.79-0.04c-1.33,1.81-3.14,2.77-5.36,2.77c-2.22,0-4-1-5.34-2.78
		C710.58,84.07,705.4,84.55,702.37,80.66z M718.48,121.49c11.35,0,22.7,0,34.05,0c0.78,0,1.82,0.26,2.26-0.13
		c0.51-0.45,0.14-1.52,0.16-2.31c0.02-1.56-0.4-1.96-1.96-1.96c-16.52,0-33.05,0-49.57,0c-6.56,0-13.12,0-19.68,0
		c-1.26,0-1.73,0.48-1.74,1.74c-0.01,0.58,0.05,1.17-0.01,1.74c-0.08,0.74,0.13,0.96,0.92,0.96
		C694.77,121.48,706.62,121.49,718.48,121.49z M691.73,102.17c0,3.96,0.01,7.92-0.01,11.88c0,0.61,0.18,0.76,0.77,0.75
		c3.78-0.02,7.56-0.02,11.35,0c0.57,0,0.72-0.16,0.72-0.72c-0.02-7.87-0.02-15.73,0-23.6c0-0.6-0.17-0.76-0.76-0.76
		c-3.76,0.02-7.51,0.03-11.27,0c-0.63,0-0.8,0.18-0.8,0.81C691.74,94.41,691.73,98.29,691.73,102.17z M718.46,71.37
		c1.13,0,2.27-0.04,3.4,0.01c0.61,0.03,0.77-0.16,0.72-0.75c-0.18-2.21-0.33-4.42-0.47-6.62c-0.03-0.43-0.21-0.54-0.62-0.54
		c-2.01,0.02-4.03,0.01-6.04,0c-0.36,0-0.56,0.08-0.58,0.49c-0.15,2.28-0.3,4.57-0.48,6.85c-0.04,0.51,0.17,0.58,0.6,0.57
		C716.14,71.36,717.3,71.37,718.46,71.37z M707.92,71.37c1.18,0,2.37-0.01,3.55,0.01c0.4,0.01,0.6-0.09,0.63-0.52
		c0.15-2.29,0.31-4.57,0.49-6.86c0.03-0.39-0.09-0.53-0.49-0.53c-2.04,0.02-4.08,0.01-6.13,0c-0.33,0-0.47,0.08-0.55,0.44
		c-0.48,2.34-0.98,4.67-1.5,7c-0.09,0.38-0.01,0.47,0.37,0.47C705.49,71.36,706.71,71.37,707.92,71.37z M729.05,71.37
		c1.18,0,2.37-0.02,3.55,0.01c0.47,0.01,0.53-0.13,0.43-0.55c-0.51-2.28-1.01-4.56-1.47-6.85c-0.08-0.41-0.25-0.52-0.64-0.51
		c-1.99,0.02-3.98,0.02-5.98,0c-0.48-0.01-0.6,0.16-0.57,0.61c0.17,2.24,0.34,4.47,0.48,6.71c0.03,0.5,0.26,0.61,0.72,0.6
		C726.73,71.36,727.89,71.37,729.05,71.37z M697.31,71.37c1.21,0,2.42,0,3.62,0c0.28,0,0.53,0.03,0.61-0.37
		c0.48-2.33,1-4.66,1.5-6.99c0.08-0.35,0.06-0.55-0.41-0.54c-2.01,0.02-4.03,0.02-6.04,0c-0.37,0-0.53,0.14-0.64,0.46
		c-0.82,2.32-1.64,4.64-2.49,6.94c-0.16,0.44-0.03,0.51,0.37,0.5C694.99,71.36,696.15,71.37,697.31,71.37z M743.54,71.37
		c0.02-0.09,0.06-0.15,0.04-0.19c-0.88-2.46-1.76-4.91-2.63-7.37c-0.13-0.37-0.38-0.33-0.65-0.33c-1.96,0-3.93,0.02-5.89-0.01
		c-0.51-0.01-0.6,0.15-0.5,0.6c0.51,2.28,1.01,4.56,1.48,6.84c0.07,0.34,0.18,0.47,0.53,0.47
		C738.47,71.37,741.01,71.37,743.54,71.37z M686.84,71.37c1.16,0,2.32-0.01,3.48,0c0.32,0,0.55-0.03,0.68-0.41
		c0.82-2.35,1.67-4.69,2.52-7.03c0.13-0.37,0.07-0.47-0.33-0.47c-1.99,0.02-3.98,0.01-5.98,0c-0.32,0-0.5,0.09-0.65,0.38
		c-1.16,2.34-2.34,4.68-3.52,7.02c-0.2,0.4-0.14,0.52,0.31,0.51C684.52,71.36,685.68,71.37,686.84,71.37z M743.28,63.48
		c0.93,2.58,1.83,5.06,2.71,7.54c0.11,0.31,0.29,0.36,0.56,0.36c2.35,0,4.69-0.01,7.04,0c0.4,0,0.57-0.05,0.34-0.5
		c-1.19-2.33-2.36-4.67-3.52-7.01c-0.14-0.28-0.31-0.4-0.64-0.4C747.65,63.49,745.53,63.48,743.28,63.48z M701.23,75.91
		c0-0.74-0.02-1.25,0.01-1.75c0.02-0.4-0.12-0.52-0.52-0.52c-2.47,0.01-4.94,0.01-7.41,0c-0.41,0-0.53,0.15-0.52,0.53
		c0.04,1.06-0.06,2.11,0.07,3.17c0.21,1.78,1.19,2.98,2.87,3.53c1.68,0.54,3.18,0.12,4.4-1.17
		C701.21,78.56,701.32,77.14,701.23,75.91z M707.76,73.65c-1.24,0-2.47,0.01-3.71-0.01c-0.37,0-0.56,0.09-0.54,0.5
		c0.05,1.08-0.07,2.16,0.09,3.25c0.3,2.09,1.93,3.62,3.95,3.68c2.22,0.06,3.94-1.33,4.33-3.51c0.2-1.1,0.04-2.22,0.1-3.32
		c0.03-0.46-0.11-0.61-0.59-0.6C710.18,73.67,708.97,73.65,707.76,73.65z M724.99,75.54c0,0.45-0.02,0.91,0,1.36
		c0.1,2.24,1.77,4.06,3.82,4.17c2.44,0.13,4.21-1.33,4.56-3.75c0.14-0.98,0.01-1.97,0.08-2.94c0.04-0.55-0.12-0.74-0.7-0.73
		c-1.97,0.04-3.93,0.01-5.9,0.01C724.99,73.65,724.99,73.65,724.99,75.54z M739.96,73.65c-1.23,0-2.47,0.01-3.7-0.01
		c-0.37,0-0.55,0.08-0.54,0.5c0.03,0.98-0.03,1.97,0.02,2.95c0.11,2.21,1.9,3.95,4.06,3.99c2.29,0.04,4.05-1.52,4.3-3.79
		c0.11-1.03,0.02-2.06,0.07-3.09c0.02-0.44-0.16-0.56-0.57-0.55C742.38,73.67,741.17,73.65,739.96,73.65z M718.56,73.65
		c-1.26,0-2.52,0-3.78,0c-0.31,0-0.54,0.02-0.53,0.43c0.05,1.16-0.08,2.32,0.1,3.47c0.33,2.04,2.03,3.51,4.09,3.52
		c2.11,0.01,3.83-1.45,4.17-3.53c0.19-1.16,0.05-2.32,0.1-3.47c0.02-0.42-0.22-0.43-0.53-0.43
		C720.98,73.66,719.77,73.65,718.56,73.65z M686.3,73.65c-1.18,0-2.37,0.02-3.55-0.01c-0.46-0.01-0.7,0.08-0.67,0.61
		c0.05,1,0,2.01,0.06,3.02c0.15,2.21,1.99,3.84,4.27,3.8c2.16-0.03,3.99-1.8,4.07-3.96c0.03-0.95-0.02-1.91,0.02-2.87
		c0.02-0.53-0.2-0.62-0.66-0.61C688.66,73.67,687.48,73.65,686.3,73.65z M750.7,73.65c-1.21,0-2.42,0.02-3.62-0.01
		c-0.44-0.01-0.64,0.08-0.62,0.58c0.04,0.93,0,1.86,0.02,2.79c0.05,2,1.6,3.77,3.52,4.04c2.12,0.3,4.08-0.91,4.67-2.94
		c0.4-1.35,0.16-2.75,0.2-4.13c0.01-0.39-0.3-0.33-0.54-0.33C753.11,73.65,751.91,73.65,750.7,73.65z"/>
	<path class="st3" d="M727.71,109.87c-5.27,0-10.54,0-15.82,0c-2.04,0-2.76-0.74-2.76-2.79c0-5.63,0-11.25,0-16.88
		c0-2.03,0.75-2.77,2.79-2.77c4.26,0,8.53,0,12.79,0c0.95,0,1.43,0.35,1.5,1.03c0.06,0.65-0.3,1.13-0.95,1.23
		c-0.3,0.04-0.6,0.04-0.91,0.04c-4.01,0-8.02,0.02-12.03-0.01c-0.64,0-0.86,0.12-0.86,0.82c0.03,5.42,0.02,10.85,0.01,16.27
		c0,0.56,0.11,0.77,0.73,0.77c10.42-0.02,20.84-0.02,31.25,0c0.58,0,0.72-0.17,0.71-0.72c-0.02-5.47-0.02-10.95,0-16.42
		c0-0.59-0.2-0.71-0.74-0.71c-4.11,0.02-8.22,0.01-12.33,0.01c-1.24,0-1.77-0.35-1.78-1.14c0-0.79,0.56-1.16,1.77-1.16
		c4.26,0,8.53,0,12.79,0c1.78,0,2.59,0.81,2.59,2.58c0,5.75,0,11.5,0,17.25c0,1.82-0.79,2.6-2.64,2.61
		C738.46,109.87,733.09,109.87,727.71,109.87z"/>
	<path class="st3" d="M702.58,101.93c0,0.35,0.02,0.7-0.01,1.05c-0.05,0.61-0.59,1.11-1.16,1.05c-0.61-0.07-1.05-0.4-1.08-1.05
		c-0.04-0.75-0.05-1.51,0.01-2.26c0.04-0.65,0.5-1.01,1.11-1.01c0.61,0,1.04,0.36,1.12,1.01
		C702.61,101.12,702.58,101.53,702.58,101.93C702.58,101.93,702.58,101.93,702.58,101.93z"/>
</g>
<g>
	<path class="st4" d="M15.23,27.78c-0.3,0.61-0.59,1.22-0.89,1.83c-0.12,0.25-0.35,0.34-0.54,0.22c-0.18-0.12-0.22-0.35-0.1-0.6
		c0.03-0.06,0.06-0.12,0.08-0.18c0.46-0.94,0.91-1.88,1.37-2.82c0.08-0.17,0.15-0.34,0.13-0.54c-0.04-0.34,0.06-0.64,0.2-0.95
		c2.27-5.09,4.53-10.19,6.8-15.29c0.22-0.49,0.33-0.53,0.79-0.31c1.02,0.5,2.08,0.84,3.2,0.9c1.2,0.06,2.34-0.24,3.4-0.87
		c0.43-0.25,0.56-0.21,0.77,0.26c2.39,5.17,4.78,10.34,7.17,15.51c0.08,0.17,0.12,0.35,0.12,0.55c0,1.22,0,2.44,0,3.66
		c0,0.44-0.11,0.56-0.51,0.56c-7.13,0-14.26,0-21.4,0c-0.43,0-0.54-0.13-0.54-0.62c0-0.43,0-0.86,0-1.29
		C15.27,27.8,15.25,27.79,15.23,27.78z M23.52,10.23c-0.01,0.11,0.04,0.18,0.08,0.25c2.09,4.72,4.19,9.45,6.28,14.17
		c0.09,0.21,0.2,0.26,0.39,0.26c2.06-0.01,4.12,0,6.17-0.01c0.08,0,0.17,0.02,0.26-0.03c0.01-0.09-0.04-0.16-0.08-0.24
		c-2.22-4.81-4.44-9.62-6.66-14.44c-0.08-0.18-0.14-0.22-0.33-0.12c-1.46,0.77-2.99,0.95-4.58,0.61
		C24.54,10.58,24.03,10.41,23.52,10.23z M23.14,11.29c-0.02,0-0.03,0-0.05,0.01c0,0.05-0.01,0.11-0.01,0.16c0,3.79,0,7.57,0,11.36
		c0,0.19,0.06,0.26,0.21,0.33c0.9,0.38,1.79,0.77,2.69,1.16c0.38,0.16,0.41,0.22,0.41,0.68c0,1.21,0,2.42,0,3.63
		c0,0.2,0.02,0.28,0.23,0.28c0.85-0.01,1.71-0.01,2.56,0c0.18,0,0.23-0.05,0.23-0.25c-0.01-0.99-0.01-1.98,0-2.98
		c0-0.2-0.04-0.37-0.12-0.55c-1.39-3.12-2.78-6.25-4.17-9.37C24.46,14.27,23.8,12.78,23.14,11.29z M22.33,11.32
		c-0.02,0-0.04,0-0.05-0.01c-0.02,0.03-0.04,0.06-0.05,0.09c-2.05,4.61-4.09,9.23-6.14,13.84c-0.05,0.12-0.07,0.23-0.07,0.36
		c0,1,0.01,2,0,3.01c0,0.22,0.06,0.27,0.25,0.27c0.85-0.01,1.71-0.01,2.56,0c0.2,0,0.24-0.06,0.24-0.27c-0.01-1.25,0-2.5-0.01-3.75
		c0-0.3,0.11-0.45,0.35-0.55c0.88-0.37,1.76-0.76,2.64-1.13c0.21-0.09,0.3-0.2,0.3-0.47c-0.01-3.7-0.01-7.4-0.01-11.11
		C22.33,11.51,22.33,11.42,22.33,11.32z M30.54,25.77c0.01,0.03,0.01,0.06,0.02,0.08c0.62,0.97,1.24,1.95,1.86,2.92
		c0.07,0.11,0.16,0.13,0.26,0.13c1.37,0,2.74,0,4.11,0c0.17,0,0.22-0.05,0.22-0.24c-0.01-0.88-0.01-1.75,0-2.63
		c0-0.24-0.05-0.3-0.27-0.3c-1.99,0.01-3.98,0.01-5.97,0.01C30.69,25.73,30.61,25.71,30.54,25.77z M22.72,24.11
		c-0.89,1.61-1.75,3.18-2.62,4.77c1.77,0,3.5,0,5.27,0C24.47,27.28,23.6,25.71,22.72,24.11z M19.78,27.75
		c0.02,0.01,0.04,0.01,0.05,0.02c0.65-1.18,1.3-2.37,1.95-3.55c-0.66,0.22-1.26,0.48-1.87,0.74c-0.08,0.04-0.14,0.08-0.14,0.2
		C19.78,26.02,19.78,26.89,19.78,27.75z M25.58,27.73c0.02-0.01,0.04-0.01,0.06-0.02c0-0.74,0-1.49,0-2.23c0-0.46,0-0.47-0.4-0.64
		c-0.52-0.23-1.05-0.45-1.64-0.7C24.29,25.38,24.93,26.55,25.58,27.73z M31.62,28.89c-0.49-0.77-0.95-1.49-1.41-2.21
		c-0.06,0.71-0.05,1.39-0.06,2.07c0,0.1,0.04,0.13,0.12,0.13C30.7,28.89,31.13,28.89,31.62,28.89z"/>
</g>
<g>
	<path class="st3" d="M1088.5,152.96c0-51.98,0-103.95,0-155.93c0-0.27-0.01-0.53,0-0.8c0.02-0.34-0.12-0.49-0.46-0.46
		c-0.18,0.02-0.37,0-0.55,0c-52.05,0-104.11,0-156.16,0c0.03-0.04-0.06-0.13,0.06-0.12c0.16,0.01,0.33,0,0.49,0
		c52.05,0,104.11,0,156.16-0.01c0.5,0,0.6,0.1,0.6,0.6c-0.01,52.06-0.01,104.12-0.02,156.18
		C1088.62,152.58,1088.76,152.82,1088.5,152.96z"/>
	<path class="st3" d="M983.17,77.09c-0.54-2.63-1.08-5.27-1.62-7.9c-0.88-4.25-1.76-8.5-2.62-12.75c-0.39-1.89-0.9-3.78-0.8-5.74
		c0.16-3.16,1.16-6.03,3.13-8.53c1.32-1.67,2.9-3.05,4.81-4.01c1.8-0.9,3.71-1.42,5.75-1.53c2.53-0.14,4.89,0.32,7.16,1.42
		c2.55,1.23,4.55,3.04,6.07,5.43c1.42,2.23,1.89,4.75,2.41,7.27c0.92,4.51,1.85,9.02,2.77,13.53c0.48,2.33,0.94,4.67,1.41,7.01
		c-0.24,0.3-0.6,0.33-0.94,0.4c-3.81,0.77-7.62,1.56-11.43,2.34c-5.01,1.02-10.02,2.06-15.04,3.08
		C983.88,77.18,983.52,77.35,983.17,77.09z"/>
	<path class="st5" d="M983.17,77.09c4.17-0.85,8.35-1.7,12.52-2.56c5.25-1.07,10.51-2.15,15.76-3.22c0.06-0.01,0.12-0.01,0.18-0.01
		c0.2,0.9,0.41,1.8,0.61,2.7c0.26,0.19,0.3,0.48,0.35,0.76c1.15,5.71,2.36,11.41,3.5,17.13c0.06,0.3,0.13,0.6-0.02,0.9
		c0.13,0.65,0.26,1.3,0.38,1.96c0.26,0.17,0.32,0.45,0.38,0.73c0.36,1.61,0.53,3.24,0.28,4.89c-0.05,0.32-0.06,0.65-0.35,0.88
		c-0.51,2-1.32,3.86-2.64,5.47c-2.12,2.59-4.87,4.05-8.14,4.6c-1.51,0.25-2.98,0.69-4.52,0.79c-6.17,0.41-11.86-3.79-13.16-9.86
		c-1.53-7.17-2.96-14.36-4.43-21.54C983.64,79.49,983.41,78.29,983.17,77.09z"/>
	<path class="st6" d="M991,97.83c5.28,3.37,10.47,6.68,15.71,10.02C1000.01,109.74,993.36,106.64,991,97.83z"/>
	<path class="st3" d="M1016.48,101.2c0.42-2.25,0.22-4.46-0.33-6.66c0.16-0.01,0.26-0.11,0.37-0.21c1.82-1.73,3.63-3.47,5.45-5.2
		c2.6-2.48,5.2-4.97,7.82-7.43c1.54-1.44,3.05-2.92,4.61-4.34c1.05-0.96,1.99-2.04,3.11-2.92c0.26-0.21,0.38-0.2,0.59,0.06
		c2.07,2.6,3.37,5.54,3.76,8.83c0.57,4.77-0.58,9.13-3.54,12.95c-2.91,3.75-6.77,5.97-11.45,6.67c-2.83,0.42-5.61,0.11-8.32-0.87
		C1017.85,101.81,1017.16,101.53,1016.48,101.2z"/>
	<path class="st3" d="M1015.75,91.9c-0.62-2.97-1.24-5.94-1.85-8.91c-0.64-3.13-1.28-6.26-1.92-9.39c-0.03-0.16-0.04-0.32-0.07-0.48
		c1.02-0.91,2.04-1.82,3.2-2.54c2.24-1.39,4.66-2.22,7.28-2.51c4.4-0.48,8.36,0.64,11.95,3.18c0.5,0.35,0.97,0.74,1.4,1.18
		c0.19,0.19,0.19,0.32,0,0.5c-1.43,1.34-2.84,2.71-4.27,4.04c-0.85,0.79-1.65,1.64-2.53,2.41c-1.18,1.04-2.27,2.17-3.41,3.26
		c-2.6,2.48-5.19,4.98-7.82,7.42C1017.07,90.68,1016.45,91.33,1015.75,91.9z"/>
</g>
<g>
	<path class="st3" d="M137.38,27.48c-2.72,0-5.43,0-8.15,0c-0.08,0-0.16,0-0.25-0.02c-0.22-0.04-0.35-0.18-0.36-0.4
		c-0.09-1.25-0.18-2.49-0.27-3.74c-0.09-1.19-0.18-2.38-0.26-3.57c-0.08-1.08-0.15-2.16-0.23-3.24c-0.07-1.02-0.15-2.05-0.22-3.07
		c-0.01-0.09-0.03-0.14-0.13-0.16c-0.78-0.17-1.56-0.34-2.34-0.51c-0.37-0.08-0.53-0.38-0.37-0.71c0.1-0.21,0.34-0.32,0.59-0.27
		c0.94,0.2,1.88,0.42,2.82,0.61c0.48,0.1,0.97,0.15,1.45,0.21c0.76,0.11,1.52,0.21,2.28,0.31c0.8,0.11,1.61,0.22,2.41,0.33
		c0.82,0.11,1.63,0.23,2.45,0.34c0.81,0.11,1.62,0.22,2.42,0.33c0.81,0.11,1.61,0.22,2.42,0.34c0.81,0.11,1.62,0.22,2.42,0.33
		c0.81,0.11,1.61,0.22,2.42,0.34c0.31,0.04,0.62,0.09,0.93,0.13c0.03,0,0.09,0.04,0.08-0.04c0.02,0,0.05,0,0.07,0
		c0.03,0.01,0.02,0.04,0.02,0.06c-0.04,0.22-0.07,0.45-0.11,0.67c-0.22,1.25-0.44,2.5-0.66,3.74c-0.24,1.33-0.47,2.67-0.71,4
		c-0.07,0.38-0.14,0.75-0.2,1.13c-0.01,0.07-0.04,0.09-0.1,0.09c-0.04,0-0.08,0-0.12,0c-5.35,0-10.71,0-16.06,0
		c-0.17,0-0.17,0-0.16,0.18c0.04,0.48,0.08,0.97,0.11,1.45c0.01,0.12,0.05,0.13,0.15,0.13c3.51,0,7.02,0,10.52,0
		c1.78,0,3.57,0,5.35,0c0.23,0,0.43,0.07,0.54,0.3c0.16,0.34-0.05,0.66-0.44,0.7c-0.05,0-0.1,0-0.15,0
		C142.81,27.48,140.1,27.48,137.38,27.48z M135.44,19.07c0.79,0,1.57,0,2.36,0c0.11,0,0.14-0.04,0.14-0.14
		c0.01-0.31,0.04-0.63,0.06-0.94c0.05-0.72,0.09-1.43,0.14-2.15c0.02-0.32,0.04-0.64,0.06-0.96c0.01-0.08,0-0.12-0.1-0.13
		c-0.29-0.03-0.59-0.08-0.88-0.12c-0.76-0.1-1.53-0.21-2.29-0.31c-0.57-0.08-1.14-0.15-1.71-0.23c-0.09-0.01-0.12,0.02-0.12,0.1
		c0,0.22-0.01,0.45-0.01,0.67c-0.04,1.35-0.08,2.7-0.12,4.05c0,0.11,0.02,0.15,0.14,0.15C133.89,19.07,134.66,19.07,135.44,19.07z
		 M135.24,23.72C135.24,23.72,135.24,23.72,135.24,23.72c0.76,0,1.52-0.01,2.27,0c0.1,0,0.13-0.03,0.13-0.12
		c0.01-0.28,0.03-0.57,0.05-0.85c0.05-0.86,0.11-1.72,0.16-2.58c0.01-0.08-0.01-0.11-0.09-0.11c-1.57,0-3.15,0-4.72,0
		c-0.07,0-0.1,0.02-0.1,0.1c-0.03,1.15-0.06,2.29-0.1,3.44c0,0.1,0.03,0.13,0.13,0.13C133.73,23.72,134.49,23.72,135.24,23.72z
		 M132.05,16.49C132.05,16.49,132.05,16.49,132.05,16.49c0.02-0.81,0.04-1.61,0.07-2.42c0-0.09-0.02-0.12-0.11-0.13
		c-0.25-0.03-0.5-0.07-0.75-0.1c-0.84-0.11-1.68-0.22-2.52-0.34c-0.12-0.02-0.11,0.03-0.11,0.11c0.03,0.39,0.06,0.79,0.09,1.18
		c0.04,0.62,0.09,1.25,0.13,1.87c0.05,0.75,0.11,1.5,0.16,2.26c0.01,0.11,0.04,0.14,0.15,0.14c0.89,0,1.78,0,2.67,0
		c0.11,0,0.15-0.03,0.15-0.14C132,18.12,132.02,17.3,132.05,16.49z M140.77,19.07c0.57,0,1.15,0,1.72,0c0.09,0,0.12-0.02,0.13-0.11
		c0.01-0.23,0.04-0.47,0.06-0.7c0.07-0.91,0.14-1.82,0.22-2.73c0.01-0.08-0.01-0.12-0.09-0.13c-0.39-0.05-0.78-0.1-1.16-0.15
		c-0.76-0.1-1.53-0.2-2.29-0.31c-0.15-0.02-0.15-0.02-0.16,0.14c-0.03,0.46-0.05,0.92-0.08,1.38c-0.05,0.83-0.11,1.67-0.16,2.5
		c-0.01,0.09,0.02,0.12,0.11,0.12C139.62,19.07,140.2,19.07,140.77,19.07z M140.44,23.71C140.44,23.71,140.44,23.71,140.44,23.71
		c0.55,0,1.1-0.01,1.66,0c0.12,0,0.15-0.04,0.15-0.14c0.01-0.17,0.02-0.34,0.03-0.51c0.08-0.97,0.16-1.94,0.24-2.91
		c0.01-0.08-0.01-0.1-0.09-0.1c-1.16,0-2.32,0-3.47,0c-0.07,0-0.09,0.02-0.1,0.09c-0.07,1.15-0.14,2.29-0.22,3.44
		c-0.01,0.1,0.02,0.13,0.12,0.13C139.32,23.71,139.88,23.71,140.44,23.71z M131.9,21.88C131.9,21.88,131.9,21.88,131.9,21.88
		c0.02-0.57,0.03-1.14,0.04-1.7c0-0.07,0-0.11-0.09-0.11c-0.89,0-1.77,0-2.66,0c-0.08,0-0.09,0.03-0.08,0.1
		c0.02,0.25,0.04,0.49,0.06,0.74c0.07,0.9,0.13,1.81,0.19,2.71c0.01,0.09,0.04,0.11,0.12,0.11c0.75,0,1.49-0.01,2.24,0
		c0.1,0,0.13-0.03,0.13-0.13C131.87,23.02,131.88,22.45,131.9,21.88z M144.74,19.07c0.33,0,0.67,0,1,0c0.09,0,0.13-0.02,0.14-0.12
		c0.17-0.98,0.35-1.97,0.52-2.95c0.02-0.1-0.01-0.13-0.1-0.14c-0.78-0.1-1.55-0.2-2.33-0.31c-0.08-0.01-0.09,0.01-0.1,0.08
		c-0.03,0.45-0.07,0.9-0.11,1.34c-0.05,0.66-0.11,1.32-0.16,1.98c-0.01,0.08,0.02,0.11,0.1,0.11
		C144.06,19.07,144.4,19.07,144.74,19.07z M144.14,23.71C144.14,23.71,144.14,23.71,144.14,23.71c0.26,0,0.52,0,0.78,0
		c0.08,0,0.13-0.01,0.14-0.11c0.04-0.28,0.1-0.57,0.15-0.85c0.15-0.85,0.3-1.71,0.46-2.56c0.02-0.1,0-0.12-0.1-0.12
		c-0.63,0-1.26,0.01-1.89,0c-0.12,0-0.15,0.04-0.16,0.15c-0.03,0.47-0.07,0.94-0.11,1.42c-0.05,0.66-0.11,1.32-0.16,1.98
		c-0.01,0.09,0.03,0.1,0.1,0.1C143.61,23.71,143.87,23.71,144.14,23.71z"/>
	<path class="st3" d="M142.63,32.53c-1.24,0-2.3-1.08-2.3-2.35c0-1.3,1.06-2.36,2.36-2.36c1.3,0,2.36,1.06,2.36,2.36
		C145.05,31.49,143.99,32.53,142.63,32.53z"/>
	<path class="st3" d="M132.81,30.17c0,1.3-1.05,2.36-2.34,2.36c-1.31,0-2.36-1.05-2.36-2.35c0-1.3,1.05-2.36,2.35-2.37
		C131.76,27.81,132.81,28.87,132.81,30.17z"/>
</g>
</svg>
